<svg id="Layer_1" data-name="Layer 1" xmlns="http://www.w3.org/2000/svg" xmlns:xlink="http://www.w3.org/1999/xlink" viewBox="0 0 177.66 227.57"><defs><style>.cls-1{fill:none;}.cls-2{fill:#b5b5b5;}.cls-3{fill:#969696;}.cls-4{fill:#f2f2f2;}.cls-5{clip-path:url(#clip-path);}.cls-6{fill:#ffcb39;}.cls-7{fill:#fff;}.cls-8{fill:#dedfe0;}.cls-9{fill:#d3d3d3;}.cls-10{fill:url(#linear-gradient);}.cls-11{fill:#fcfcfc;}.cls-12{clip-path:url(#clip-path-2);}.cls-13{fill:#c4c4c4;}.cls-14{fill:#adadad;}.cls-15{clip-path:url(#clip-path-3);}.cls-16{fill:#c6c6c6;}.cls-17{clip-path:url(#clip-path-4);}.cls-18{fill:#b2b2b2;}.cls-19{clip-path:url(#clip-path-5);}.cls-20{fill:#e8e8e8;}.cls-21{clip-path:url(#clip-path-6);}.cls-22{fill:#7f1bbf;}.cls-23{fill:url(#linear-gradient-2);}.cls-24{fill:#d8d8d8;}</style><clipPath id="clip-path" transform="translate(-5.1 -2.32)"><path class="cls-1" d="M107.63,143.32l-.74.43a1,1,0,0,0-.39,1.36.62.62,0,0,0,.08.12c3.75,5,15.52,28.93,19,36.07a2.39,2.39,0,0,1-1,3.14L107,194.62a2.4,2.4,0,0,1-2.84-.31c-2.49-2.3-8.3-7.8-15.37-15.5-9.49-10.32-20.91-30.07-24.92-40s-4-10-6-19.4c-4.48,5.71-3.15,19.09-2.79,22.06a2.2,2.2,0,0,0,.42,1.05c1.48,2,7.26,9.65,8.58,11.94,1.52,2.63,0,4.7-1.11,4.16a86.93,86.93,0,0,1-7.89-5.3,1.53,1.53,0,0,0-1.43-.22c-1.78.7,1.08,3.23,1.08,3.23a45.25,45.25,0,0,0,5.68,3.74,3.7,3.7,0,0,1,2.05,2.61,2.3,2.3,0,0,1-.68,2.32c-3.69,3.32-9.35,1.69-12.48.38a8.71,8.71,0,0,1-4-3.3A19,19,0,0,1,42.24,153a18.62,18.62,0,0,0-2.7-10.74C25.41,115.18,42.85,91.14,44.4,86.6,53.4,83.42,59.53,76,66.47,72l-.21.12C73.18,68.09,81.83,66,89.11,59.72c4.71.93,35.09-1.66,51.52,24.1a18.67,18.67,0,0,0,8,7.69A19,19,0,0,1,155,98.72a8.74,8.74,0,0,1,.89,5.07c-.43,3.36-1.84,9.08-6.55,10.62a2.31,2.31,0,0,1-2.35-.57,3.73,3.73,0,0,1-1.24-3.08,46.72,46.72,0,0,0-.41-6.79s-.76-3.72-2.25-2.55a1.54,1.54,0,0,0-.53,1.35c.36,3.46,1.8,8.8.56,9.51s-2.63,1.52-4.16-1.11c-1.32-2.29-5.11-11.13-6.07-13.39a2.17,2.17,0,0,0-.7-.89c-2.39-1.79-13.33-9.62-20.51-8.58,7.2,6.37,7.2,6.38,13.85,14.83s18.07,28.2,22.29,41.57c3.15,10,5,17.75,5.78,21a2.39,2.39,0,0,1-1.14,2.62l-17.6,10.18a2.4,2.4,0,0,1-3.2-.73c-4.45-6.58-19.32-28.71-21.79-34.46a1,1,0,0,0-1.31-.53l-.12.06-.74.43"/></clipPath><linearGradient id="linear-gradient" x1="-1155.23" y1="-30.35" x2="-1123.26" y2="-30.35" gradientTransform="matrix(1, 0, 0, -1, 1226.13, 77.46)" gradientUnits="userSpaceOnUse"><stop offset="0" stop-color="#9e23cc"/><stop offset="1" stop-color="#4619bf"/></linearGradient><clipPath id="clip-path-2" transform="translate(-5.1 -2.32)"><path class="cls-1" d="M134.23,181.05l10.53,16.4a11.24,11.24,0,0,0,8.07,4.42,15.1,15.1,0,0,0,4.35-.21,17.76,17.76,0,0,0,5.6-2.12c9.16-5.25,17.65-10.09,8.59-17.5a15.13,15.13,0,0,0-5.65-2.87c-.87-.23-1.73-.43-2.51-.61a10,10,0,0,1-6.6-4.91l-2.11-3.75Z"/></clipPath><clipPath id="clip-path-3" transform="translate(-5.1 -2.32)"><path class="cls-1" d="M127.33,185l9,17.31a11.18,11.18,0,0,1-.19,9.2,14.94,14.94,0,0,1-2.36,3.67,17.85,17.85,0,0,1-4.63,3.8c-9.12,5.33-17.55,10.27-19.45-1.27a15,15,0,0,1,.33-6.33c.24-.87.48-1.71.73-2.48a10,10,0,0,0-1-8.17l-2.2-3.69Z"/></clipPath><clipPath id="clip-path-4" transform="translate(-5.1 -2.32)"><path class="cls-1" d="M11.74,52.5h0l9.13,15.89h0a7.33,7.33,0,0,1-10-2.7L9,62.51a7.34,7.34,0,0,1,2.7-10Z"/></clipPath><clipPath id="clip-path-5" transform="translate(-5.1 -2.32)"><path class="cls-1" d="M85.64,30.62h0L76.49,14.81h0a7.31,7.31,0,0,1,10,2.67h0l1.83,3.16a7.3,7.3,0,0,1-2.66,10Z"/></clipPath><clipPath id="clip-path-6" transform="translate(-5.1 -2.32)"><circle class="cls-1" cx="48.95" cy="42.11" r="38.91"/></clipPath><linearGradient id="linear-gradient-2" x1="-1139.09" y1="40.49" x2="-1089.11" y2="40.49" gradientTransform="matrix(0.87, -0.5, -0.5, -0.87, 1035.72, -483.29)" xlink:href="#linear-gradient"/></defs><g id="Layer_1-2" data-name="Layer 1-2"><path class="cls-2" d="M35.72,86.42h0a3.16,3.16,0,0,1-4.32-1.15h0A3.17,3.17,0,0,1,32.56,81h0a3.15,3.15,0,0,1,4.31,1.16h0A3.14,3.14,0,0,1,35.72,86.42Z" transform="translate(-5.1 -2.32)"/><path class="cls-3" d="M97,125.5,66.27,143.32a10.59,10.59,0,0,1-13.91-3L28,106.42a15.5,15.5,0,0,1,3.54-21.63c.42-.3.84-.57,1.28-.83L62.91,66.52Z" transform="translate(-5.1 -2.32)"/><path class="cls-2" d="M96.8,125.11,67.2,142.23a10.19,10.19,0,0,1-13.4-2.91L30.52,107a15.21,15.21,0,0,1,3.53-21.22q.59-.42,1.2-.78L64,68.32Z" transform="translate(-5.1 -2.32)"/><path class="cls-2" d="M90.86,47.24h0a3.14,3.14,0,0,1,4.31,1.15h0A3.16,3.16,0,0,1,94,52.71h0a3.17,3.17,0,0,1-4.32-1.15h0A3.16,3.16,0,0,1,90.86,47.24Z" transform="translate(-5.1 -2.32)"/><path class="cls-3" d="M96.93,125.55l30.75-17.79A10.59,10.59,0,0,0,132,94.21l-17.23-38a15.5,15.5,0,0,0-20.52-7.69q-.69.31-1.35.69L62.82,66.58Z" transform="translate(-5.1 -2.32)"/><path class="cls-2" d="M96.32,125.39l29.6-17.12a10.2,10.2,0,0,0,4.19-13L113.65,58.9a15.2,15.2,0,0,0-20.13-7.57,14,14,0,0,0-1.34.68l-28.7,16.6Z" transform="translate(-5.1 -2.32)"/><path class="cls-4" d="M107.63,143.32l-.74.43a1,1,0,0,0-.39,1.36.62.62,0,0,0,.08.12c3.75,5,15.52,28.93,19,36.07a2.39,2.39,0,0,1-1,3.14L107,194.62a2.4,2.4,0,0,1-2.84-.31c-2.49-2.3-8.3-7.8-15.37-15.5-9.49-10.32-20.91-30.07-24.92-40s-4-10-6-19.4c-4.48,5.71-3.15,19.09-2.79,22.06a2.2,2.2,0,0,0,.42,1.05c1.48,2,7.26,9.65,8.58,11.94,1.52,2.63,0,4.7-1.11,4.16a86.93,86.93,0,0,1-7.89-5.3,1.53,1.53,0,0,0-1.43-.22c-1.78.7,1.08,3.23,1.08,3.23a45.25,45.25,0,0,0,5.68,3.74,3.7,3.7,0,0,1,2.05,2.61,2.3,2.3,0,0,1-.68,2.32c-3.69,3.32-9.35,1.69-12.48.38a8.71,8.71,0,0,1-4-3.3A19,19,0,0,1,42.24,153a18.62,18.62,0,0,0-2.7-10.74C25.41,115.18,42.85,91.14,44.4,86.6,53.4,83.42,59.53,76,66.47,72l-.21.12C73.18,68.09,81.83,66,89.11,59.72c4.71.93,35.09-1.66,51.52,24.1a18.67,18.67,0,0,0,8,7.69A19,19,0,0,1,155,98.72a8.74,8.74,0,0,1,.89,5.07c-.43,3.36-1.84,9.08-6.55,10.62a2.31,2.31,0,0,1-2.35-.57,3.73,3.73,0,0,1-1.24-3.08,46.72,46.72,0,0,0-.41-6.79s-.76-3.72-2.25-2.55a1.54,1.54,0,0,0-.53,1.35c.36,3.46,1.8,8.8.56,9.51s-2.63,1.52-4.16-1.11c-1.32-2.29-5.11-11.13-6.07-13.39a2.17,2.17,0,0,0-.7-.89c-2.39-1.79-13.33-9.62-20.51-8.58,7.2,6.37,7.2,6.38,13.85,14.83s18.07,28.2,22.29,41.57c3.15,10,5,17.75,5.78,21a2.39,2.39,0,0,1-1.14,2.62l-17.6,10.18a2.4,2.4,0,0,1-3.2-.73c-4.45-6.58-19.32-28.71-21.79-34.46a1,1,0,0,0-1.31-.53l-.12.06-.74.43" transform="translate(-5.1 -2.32)"/><g class="cls-5"><rect class="cls-6" x="108.04" y="62.62" width="18.38" height="7.44" transform="translate(4.82 145.44) rotate(-66.7)"/><path class="cls-7" d="M89.11,59.72s33.5,5.64,47.74,20.34c11.5,16.28,9.9,9.91,11.65,12s9,4.71,4.3,19.15,12.71-8.66,12.71-8.66L141.84,66.21,92,54.89l-2.39,4Z" transform="translate(-5.1 -2.32)"/><rect class="cls-6" x="29.97" y="105.16" width="7.67" height="18.95" transform="translate(-88.09 137.69) rotate(-85.83)"/><rect class="cls-6" x="111.21" y="144.36" width="40.01" height="3.26" transform="translate(-66.92 108.06) rotate(-37.6)"/><rect class="cls-6" x="76.39" y="164.41" width="40.01" height="3.26" transform="translate(-61.3 47.21) rotate(-22.5)"/><path class="cls-8" d="M135.62,96.92S121.11,84.46,104.72,84c0,0,22.44,19.86,28.56,34,3.22,6.48,22.61,42.7,20.27,54C165,161.24,135.62,96.92,135.62,96.92Z" transform="translate(-5.1 -2.32)"/><path class="cls-8" d="M71.55,154.66s-13.54-34.22-13-45c-6,14.92-8.56,22.15-4.8,34.05,9.18,11.37,15.76,16.43,15.76,16.43Z" transform="translate(-5.1 -2.32)"/><path class="cls-8" d="M106.77,143.85l-3.86,2.23a1.11,1.11,0,0,0-.4,1.51.22.22,0,0,0,0,.08c3,4.32,15.42,22.14,23.57,38.92a1.11,1.11,0,0,0,1.47.53,1,1,0,0,0,.39-.32,7.85,7.85,0,0,0,1.68-5.34,1,1,0,0,0-.15-.47l-21.25-36.73A1.11,1.11,0,0,0,106.77,143.85Z" transform="translate(-5.1 -2.32)"/><path class="cls-7" d="M43.71,94.83c-7.44,10.56-7.1,22.87-7.14,25.5A56.06,56.06,0,0,0,39,137.16c3.39,5.86,4.46,10.41,4,11.47s-6,5.84-6,5.84l-15.59-27,1.65-26L43.78,85.93Z" transform="translate(-5.1 -2.32)"/></g><path class="cls-9" d="M109.05,115.49,82.9,131a6,6,0,0,1-8.23-2l0-.07-6.24-10.51a6,6,0,0,1,2.06-8.23l.06,0L96.67,94.54a6,6,0,0,1,8.24,2.06l0,.06,6.24,10.55a6,6,0,0,1-2.05,8.24Z" transform="translate(-5.1 -2.32)"/><rect class="cls-2" x="75.75" y="117.43" width="12.88" height="2.39" rx="1.19" transform="translate(-54.04 56.03) rotate(-30.6)"/><circle class="cls-6" cx="80.99" cy="113.99" r="0.95"/><rect class="cls-2" x="77.44" y="120.3" width="12.88" height="2.39" rx="1.19" transform="matrix(0.86, -0.51, 0.51, 0.86, -55.27, 57.3)"/><circle class="cls-6" cx="76.12" cy="120.75" r="0.95"/><rect class="cls-2" x="79.15" y="123.18" width="12.88" height="2.39" rx="1.19" transform="translate(-56.5 58.57) rotate(-30.6)"/><circle class="cls-6" cx="81.93" cy="121.19" r="0.95"/><rect class="cls-2" x="93.01" y="107.49" width="11.45" height="0.48" transform="translate(-46.19 62.94) rotate(-30.6)"/><rect class="cls-2" x="93.42" y="108.15" width="11.45" height="0.48" transform="matrix(0.86, -0.51, 0.51, 0.86, -46.47, 63.24)"/><rect class="cls-2" x="93.82" y="108.83" width="11.45" height="0.48" transform="translate(-46.76 63.54) rotate(-30.6)"/><rect class="cls-2" x="94.24" y="109.34" width="11.45" height="0.48" transform="matrix(0.86, -0.51, 0.51, 0.86, -47.01, 63.99)"/><rect class="cls-2" x="94.61" y="110.17" width="11.45" height="0.48" transform="translate(-47.33 64.13) rotate(-30.6)"/><rect class="cls-2" x="95.01" y="110.84" width="11.45" height="0.48" transform="translate(-47.62 64.42) rotate(-30.6)"/><rect class="cls-2" x="95.44" y="111.33" width="11.45" height="0.48" transform="translate(-47.86 64.88) rotate(-30.67)"/><rect class="cls-2" x="95.84" y="112.02" width="11.45" height="0.48" transform="translate(-48.16 65.18) rotate(-30.67)"/><rect class="cls-2" x="96.23" y="112.69" width="11.45" height="0.48" transform="translate(-48.44 65.48) rotate(-30.67)"/><rect class="cls-2" x="96.63" y="113.35" width="11.45" height="0.48" transform="translate(-48.73 65.77) rotate(-30.67)"/><rect class="cls-2" x="97" y="114.2" width="11.45" height="0.48" transform="translate(-49.05 65.9) rotate(-30.6)"/><rect class="cls-2" x="97.39" y="114.87" width="11.45" height="0.48" transform="translate(-49.34 66.19) rotate(-30.6)"/><rect class="cls-10" x="70.9" y="105.18" width="31.97" height="5.25" rx="2.62" transform="translate(-47.88 56.92) rotate(-30.6)"/><rect class="cls-9" x="129.91" y="92.83" width="18.95" height="3.16" transform="translate(-34.03 88.7) rotate(-32.96)"/><rect class="cls-9" x="39.52" y="144.75" width="18.95" height="3.16" transform="translate(-63.04 32.74) rotate(-25.35)"/><rect class="cls-9" x="65.34" y="132.44" width="75.35" height="6.32" transform="translate(-59.24 67.68) rotate(-30.12)"/><rect class="cls-2" x="96.51" y="131.43" width="12.63" height="8.57" rx="1.32" transform="translate(-59.32 67.6) rotate(-30.12)"/><circle class="cls-11" cx="97.72" cy="133.39" r="2.93"/><path class="cls-8" d="M134.23,181.05l10.53,16.4a11.24,11.24,0,0,0,8.07,4.42,15.1,15.1,0,0,0,4.35-.21,17.76,17.76,0,0,0,5.6-2.12c9.16-5.25,17.65-10.09,8.59-17.5a15.13,15.13,0,0,0-5.65-2.87c-.87-.23-1.73-.43-2.51-.61a10,10,0,0,1-6.6-4.91l-2.11-3.75Z" transform="translate(-5.1 -2.32)"/><g class="cls-12"><circle class="cls-13" cx="158.18" cy="175.29" r="5.64"/><path class="cls-13" d="M135.84,200l6.5-5.85a11.24,11.24,0,0,0,8.07,4.42,15.1,15.1,0,0,0,4.35-.21,17.76,17.76,0,0,0,5.6-2.12c9.16-5.25,17.65-10.09,8.59-17.5a15.13,15.13,0,0,0-5.65-2.87c-.87-.23-1.73-.43-2.51-.61-2.8-.61,16.27.54,14.86-2l7.11,10.48-3.86,9.57-10,8.9-11.22,4.93-7,.43-6.39-2-4.44-3.17Z" transform="translate(-5.1 -2.32)"/></g><rect class="cls-9" x="130.53" y="171.28" width="26.62" height="4.96" rx="2.48" transform="translate(-72.78 93.06) rotate(-30.05)"/><rect class="cls-14" x="144.25" y="181.51" width="1.11" height="9.93" transform="translate(-79.01 95.25) rotate(-30.05)"/><rect class="cls-14" x="149.25" y="178.63" width="1.11" height="9.93" transform="translate(-76.9 97.37) rotate(-30.05)"/><rect class="cls-14" x="146.76" y="180.07" width="1.11" height="9.93" transform="translate(-77.96 96.31) rotate(-30.05)"/><path class="cls-8" d="M127.33,185l9,17.31a11.18,11.18,0,0,1-.19,9.2,14.94,14.94,0,0,1-2.36,3.67,17.85,17.85,0,0,1-4.63,3.8c-9.12,5.33-17.55,10.27-19.45-1.27a15,15,0,0,1,.33-6.33c.24-.87.48-1.71.73-2.48a10,10,0,0,0-1-8.17l-2.2-3.69Z" transform="translate(-5.1 -2.32)"/><g class="cls-15"><circle class="cls-13" cx="104.79" cy="206.18" r="5.64"/><path class="cls-13" d="M143,195.88l-8.31,2.72a11.18,11.18,0,0,1-.19,9.2,14.94,14.94,0,0,1-2.36,3.67,17.85,17.85,0,0,1-4.63,3.8c-9.12,5.33-17.55,10.27-19.45-1.27a15,15,0,0,1,.33-6.33c.24-.87.48-1.71.73-2.48.87-2.73-7.64,14.37-9.11,11.91l5.55,11.39,10.19,1.4,12.68-4.21,9.87-7.27,3.89-5.9,1.42-6.56-.53-5.43Z" transform="translate(-5.1 -2.32)"/></g><rect class="cls-9" x="102.9" y="187.24" width="26.62" height="4.96" rx="2.48" transform="translate(-84.49 81.37) rotate(-30.05)"/><rect class="cls-14" x="126.21" y="191.96" width="1.11" height="9.93" transform="translate(-86.67 87.62) rotate(-30.05)"/><rect class="cls-14" x="121.22" y="194.84" width="1.11" height="9.93" transform="translate(-88.79 85.51) rotate(-30.05)"/><rect class="cls-14" x="123.34" y="192.43" width="1.11" height="9.96" transform="translate(-86.99 85.66) rotate(-29.89)"/><rect class="cls-16" x="4.89" y="64.72" width="5.87" height="0.72" transform="translate(-36.64 10.34) rotate(-30.05)"/><path id="ear-3" class="cls-16" d="M11.74,52.5h0l9.13,15.89h0a7.33,7.33,0,0,1-10-2.7L9,62.51a7.34,7.34,0,0,1,2.7-10Z" transform="translate(-5.1 -2.32)"/><g class="cls-17"><ellipse id="circle" class="cls-18" cx="39.75" cy="46.3" rx="29.49" ry="31.36" transform="translate(-17.56 12.39) rotate(-18.18)"/><ellipse class="cls-18" cx="10.01" cy="63.87" rx="0.9" ry="1.8" transform="translate(-35.74 11.27) rotate(-30.05)"/></g><rect class="cls-16" x="86.6" y="17.45" width="5.87" height="0.72" transform="translate(-1.98 44.91) rotate(-30.05)"/><path id="ear-4" class="cls-16" d="M85.64,30.62h0L76.49,14.81h0a7.31,7.31,0,0,1,10,2.67h0l1.83,3.16a7.3,7.3,0,0,1-2.66,10Z" transform="translate(-5.1 -2.32)"/><g class="cls-19"><ellipse id="circle-2" class="cls-18" cx="57.99" cy="36.75" rx="29.25" ry="31.04" transform="translate(-15.71 31.65) rotate(-30.05)"/><ellipse class="cls-18" cx="87.37" cy="19.01" rx="0.9" ry="1.8" transform="translate(-2.88 43.98) rotate(-30.05)"/></g><circle id="_Ellipse_2" data-name=" Ellipse 2" class="cls-20" cx="43.85" cy="39.78" r="38.91"/><g class="cls-21"><ellipse id="_Ellipse_3" data-name=" Ellipse 3" class="cls-4" cx="51.01" cy="40.92" rx="36.76" ry="38.91" transform="translate(-18.71 28.54) rotate(-29.89)"/><ellipse id="_Ellipse_4" data-name=" Ellipse 4" class="cls-7" cx="50.83" cy="40.56" rx="36.55" ry="38.78" transform="translate(-18.58 28.58) rotate(-30.05)"/><ellipse id="_Ellipse_5" data-name=" Ellipse 5" class="cls-4" cx="49.47" cy="41.35" rx="34.97" ry="38.78" transform="matrix(0.87, -0.5, 0.5, 0.87, -19.16, 28)"/></g><path id="purple" class="cls-22" d="M73.11,27.81c7.78,13.45,3.6,29.1-9.85,36.88s-31,4.75-38.83-8.7S22.8,25.75,36.25,18,65.36,14.32,73.11,27.81Z" transform="translate(-5.1 -2.32)"/><path id="purple-2" class="cls-23" d="M72.72,27C80.25,40,77,54.74,65,61.66a26.11,26.11,0,0,1-26.15-45.2C50.83,9.54,65.19,14,72.72,27Z" transform="translate(-5.1 -2.32)"/><g id="outline"><path class="cls-24" d="M50.27,14.07c9.13,0,17.72,4.84,22.87,13.74,7.78,13.45,3.6,29.1-9.85,36.88A31.14,31.14,0,0,1,47.7,68.91c-9.34,0-18.31-4.34-23.27-12.92C16.65,42.54,22.8,25.75,36.25,18a28,28,0,0,1,14-3.89m0-5h0a33.18,33.18,0,0,0-16.51,4.57C17.4,23.1,11.27,43.22,20.11,58.49c5.58,9.65,15.9,15.42,27.6,15.42A36.11,36.11,0,0,0,65.79,69,32,32,0,0,0,81,49.67a32,32,0,0,0-3.54-24.35c-5.88-10.17-16-16.24-27.2-16.24Z" transform="translate(-5.1 -2.32)"/></g><path class="cls-16" d="M45.8,80.59,84.06,58.46a7.67,7.67,0,0,1,10.5,2.76l0,0,.87,1.52h0L43.87,92.6h0L43,91.08a7.67,7.67,0,0,1,2.8-10.49Z" transform="translate(-5.1 -2.32)"/><path class="cls-24" d="M41.64,81.45,86.88,55.27a3.64,3.64,0,0,1,5,1.3l2.92,5h0L43.2,91.44h0l-2.92-5A3.64,3.64,0,0,1,41.64,81.45Z" transform="translate(-5.1 -2.32)"/><circle class="cls-2" cx="40.71" cy="82.43" r="2.26"/><circle class="cls-2" cx="47.67" cy="78.4" r="2.26"/><circle class="cls-2" cx="54.64" cy="74.38" r="2.26"/><circle class="cls-2" cx="61.6" cy="70.34" r="2.26"/><circle class="cls-2" cx="68.56" cy="66.32" r="2.26"/><circle class="cls-2" cx="75.53" cy="62.29" r="2.26"/><circle class="cls-2" cx="82.49" cy="58.26" r="2.26"/></g></svg>